name C:\Users\u0101727\Documents\MyRepositories\paper-ad\predictivesimulations_2d/Results/PredSim_2D/IK_c8.mot
datacolumns 11
datarows 47
range 0.00000000 0.44130713
endheader
time	pelvis_tilt	pelvis_tx	pelvis_ty	hip_flexion_l	hip_flexion_r	knee_angle_l	knee_angle_r	ankle_angle_l	ankle_angle_r	lumbar_extension	
          0.00000000	        -15.15288196	          0.00000000	          0.88362135	          0.97574870	         38.08605163	        -16.23218351	        -10.56473274	          5.77191064	         13.84017051	          9.66029516	
          0.00959363	        -15.11483100	          0.01477795	          0.88283477	          0.88200127	         37.60141554	        -17.72581838	         -9.95940154	          4.57158821	         13.39196012	          9.75718795	
          0.01918727	        -15.06573427	          0.02981934	          0.88199722	          0.86700108	         37.02160469	        -19.38695841	         -9.64010037	          3.26745019	         12.89164836	          9.86712314	
          0.02878090	        -15.00814844	          0.04510713	          0.88113210	          0.93798253	         36.27854538	        -21.21248502	         -9.72739422	          1.83950933	         12.33715948	          9.99407347	
          0.03837453	        -14.95028535	          0.06045545	          0.88036636	          1.09957764	         35.41537908	        -23.18381722	        -10.04158536	          0.37312917	         11.76783185	         10.12861148	
          0.04796817	        -14.90312199	          0.07552357	          0.87992955	          1.37863961	         34.55729928	        -25.20850356	        -10.32171823	         -0.91019039	         11.21761636	         10.24749544	
          0.05756180	        -14.87522074	          0.09006437	          0.88008347	          1.80343512	         33.74156385	        -27.14631990	        -10.57994478	         -1.91244286	         10.68638504	         10.33681036	
          0.06715543	        -14.86892129	          0.10401489	          0.88098394	          2.36987002	         32.97062904	        -28.93464496	        -10.81114418	         -2.66298152	         10.18879660	         10.39541383	
          0.07674907	        -14.87953235	          0.11745841	          0.88259010	          3.06116025	         32.22596297	        -30.59419928	        -11.00332234	         -3.17124317	          9.74113898	         10.42944797	
          0.08634270	        -14.90046146	          0.13051916	          0.88469211	          3.85676323	         31.48644706	        -32.15409144	        -11.14755611	         -3.44998069	          9.35490539	         10.44593819	
          0.09593633	        -14.92634477	          0.14330462	          0.88705735	          4.74112141	         30.73527734	        -33.63190569	        -11.23702964	         -3.51475751	          9.03636264	         10.45019804	
          0.10552997	        -14.95374349	          0.15588903	          0.88950307	          5.70220757	         29.96300753	        -35.03611685	        -11.26982576	         -3.38059959	          8.78712554	         10.44542175	
          0.11512360	        -14.98076370	          0.16831937	          0.89190565	          6.73101490	         29.16511212	        -36.36805177	        -11.24638579	         -3.06381104	          8.60616704	         10.43336654	
          0.12471723	        -15.00644412	          0.18062570	          0.89418588	          7.82014365	         28.34004797	        -37.62459519	        -11.16871753	         -2.58112849	          8.49084365	         10.41504258	
          0.13431086	        -15.03029442	          0.19282833	          0.89629336	          8.96341191	         27.48819049	        -38.80086193	        -11.04030516	         -1.94942143	          8.43741015	         10.39106470	
          0.14390450	        -15.05204681	          0.20494233	          0.89819566	         10.15526810	         26.61118905	        -39.89076640	        -10.86599641	         -1.18564097	          8.44131852	         10.36188383	
          0.15349813	        -15.07153026	          0.21698011	          0.89987181	         11.39035912	         25.71163955	        -40.88753789	        -10.65182355	         -0.30695148	          8.49742408	         10.32790680	
          0.16309176	        -15.08862163	          0.22895257	          0.90130916	         12.66326540	         24.79284844	        -41.78400069	        -10.40480777	          0.66925712	          8.60014056	         10.28955028	
          0.17268540	        -15.10323250	          0.24086920	          0.90250285	         13.96861986	         23.85879398	        -42.57256703	        -10.13296870	          1.72541680	          8.74365131	         10.24720512	
          0.18227903	        -15.11534811	          0.25273762	          0.90345613	         15.30141394	         22.91390363	        -43.24505241	         -9.84409516	          2.84385689	          8.92208784	         10.20119086	
          0.19187266	        -15.12509250	          0.26456515	          0.90417962	         16.65565289	         21.96206847	        -43.79393382	         -9.54524098	          4.00676461	          9.12895102	         10.15198607	
          0.20146630	        -15.13262777	          0.27635802	          0.90469029	         18.02551988	         21.00746671	        -44.21155186	         -9.24397987	          5.19629552	          9.35656318	         10.10001858	
          0.21105993	        -15.13809502	          0.28812176	          0.90500891	         19.40553451	         20.05466858	        -44.49010016	         -8.94815783	          6.39463173	          9.59688887	         10.04562968	
          0.22065356	        -15.14163996	          0.29986235	          0.90515692	         20.78920056	         19.10848123	        -44.62263816	         -8.66616044	          7.58397853	          9.84198980	          9.98919827	
          0.23024720	        -15.14348293	          0.31158687	          0.90515460	         22.16959658	         18.17214030	        -44.60353318	         -8.40360799	          8.74666200	         10.08453981	          9.93125801	
          0.23984083	        -15.14394114	          0.32330363	          0.90502007	         23.53983340	         17.24645059	        -44.42871912	         -8.16179218	          9.86531533	         10.31789766	          9.87255177	
          0.24943446	        -15.14329662	          0.33502139	          0.90476887	         24.89205037	         16.33283620	        -44.09617011	         -7.94350272	         10.92320063	         10.53527339	          9.81380960	
          0.25902810	        -15.14179386	          0.34674839	          0.90441410	         26.21823468	         15.43344108	        -43.60501590	         -7.75237421	         11.90487486	         10.73058320	          9.75565713	
          0.26862173	        -15.13967397	          0.35849365	          0.90396644	         27.50962463	         14.54983501	        -42.95822784	         -7.59142254	         12.79694129	         10.89919032	          9.69882446	
          0.27821536	        -15.13719524	          0.37026562	          0.90343503	         28.75821798	         13.68295120	        -42.16030143	         -7.46265758	         13.58917531	         11.03813887	          9.64400252	
          0.28780900	        -15.13462166	          0.38207097	          0.90282789	         29.95775940	         12.83364653	        -41.21566398	         -7.36717422	         14.27549128	         11.14629212	          9.59168485	
          0.29740263	        -15.13219185	          0.39391600	          0.90215157	         31.10255234	         12.00262985	        -40.13102344	         -7.30664424	         14.85428861	         11.22437151	          9.54231133	
          0.30699626	        -15.13012770	          0.40580504	          0.90141139	         32.18966273	         11.19022245	        -38.91185616	         -7.28197094	         15.32840301	         11.27518903	          9.49607032	
          0.31658990	        -15.12864069	          0.41774171	          0.90061113	         33.21772881	         10.39631086	        -37.56315398	         -7.29355036	         15.70410363	         11.30319414	          9.45302748	
          0.32618353	        -15.12794969	          0.42972936	          0.89975272	         34.18615040	          9.62064422	        -36.09029677	         -7.34139090	         15.98976314	         11.31369751	          9.41316204	
          0.33577716	        -15.12833679	          0.44177253	          0.89883631	         35.09343426	          8.86261300	        -34.50081761	         -7.42493384	         16.19451876	         11.31196422	          9.37654840	
          0.34537079	        -15.13019411	          0.45387768	          0.89786074	         35.93611853	          8.12116422	        -32.80245054	         -7.54311063	         16.32748981	         11.30160191	          9.34349515	
          0.35496443	        -15.13384476	          0.46605293	          0.89682486	         36.70962267	          7.39594828	        -31.00662969	         -7.69620571	         16.39746375	         11.28342586	          9.31438874	
          0.36455806	        -15.13935690	          0.47831029	          0.89573132	         37.40724355	          6.68786637	        -29.13955719	         -7.88789700	         16.41258206	         11.25581429	          9.28981860	
          0.37415169	        -15.14675727	          0.49066801	          0.89459256	         38.01603324	          5.99894824	        -27.23545224	         -8.12442766	         16.38013848	         11.21272044	          9.27108889	
          0.38374533	        -15.15606568	          0.50314761	          0.89343028	         38.52021293	          5.33235426	        -25.32650730	         -8.41292794	         16.30652512	         11.14172766	          9.25992086	
          0.39333896	        -15.16696232	          0.51576787	          0.89226702	         38.91035234	          4.69249950	        -23.44056559	         -8.76188165	         16.19712987	         11.02655442	          9.25750211	
          0.40293259	        -15.17865012	          0.52854340	          0.89112073	         39.18630922	          4.08465112	        -21.59950588	         -9.18115375	         16.05607476	         10.85066937	          9.26423903	
          0.41252623	        -15.18991666	          0.54148705	          0.89000574	         39.35497268	          3.51409503	        -19.82495508	         -9.68106166	         15.88595623	         10.59980228	          9.28005944	
          0.42211986	        -15.19954301	          0.55461269	          0.88893418	         39.42356086	          2.98571096	        -18.13171918	        -10.27127581	         15.68796848	         10.26111219	          9.30505517	
          0.43171349	        -15.20638636	          0.56793476	          0.88791525	         39.39889139	          2.50393120	        -16.53156984	        -10.96036094	         15.46200632	          9.82244702	          9.33946509	
          0.44130713	        -15.20919232	          0.58146748	          0.88695421	         39.28855542	          2.07337133	        -15.04154219	        -11.75731416	         15.20678796	          9.27295623	          9.38342834	
